<svg width="66" height="24" viewBox="0 0 66 24" fill="none" xmlns="http://www.w3.org/2000/svg">
<g clip-path="url(#clip0_283_2563)">
<path opacity="0.977" fill-rule="evenodd" clip-rule="evenodd" d="M23.6156 -0.0205078C24.8256 -0.0205078 26.0356 -0.0205078 27.2456 -0.0205078C27.2387 1.72699 27.2456 3.47443 27.2662 5.22181C28.1483 4.34286 29.214 3.99474 30.4631 4.17744C31.9443 4.474 32.8587 5.35455 33.2062 6.81908C33.2742 7.08816 33.3154 7.36117 33.33 7.6382C33.3506 9.91803 33.3575 12.1979 33.3506 14.4778C32.1406 14.4778 30.9306 14.4778 29.7206 14.4778C29.74 12.4696 29.7194 10.4628 29.6587 8.45731C29.4486 7.6531 28.933 7.34594 28.1119 7.53581C27.852 7.6162 27.6527 7.77323 27.5137 8.0068C27.4136 8.17226 27.3448 8.34976 27.3075 8.53922C27.247 10.5175 27.2264 12.4971 27.2456 14.4778C26.0356 14.4778 24.8256 14.4778 23.6156 14.4778C23.6156 9.64502 23.6156 4.81226 23.6156 -0.0205078Z" fill="#181D27"/>
<path opacity="0.973" fill-rule="evenodd" clip-rule="evenodd" d="M61.6894 -0.0205078C63.1196 -0.0205078 64.5493 -0.0205078 65.9794 -0.0205078C65.9794 0.0340997 65.9794 0.0887073 65.9794 0.143315C64.732 3.1 63.4875 6.06247 62.2463 9.03069C62.2257 9.05116 62.205 9.07164 62.1844 9.09212C60.7683 9.1126 59.3518 9.11944 57.9357 9.1126C59.1752 6.06402 60.4263 3.01964 61.6894 -0.0205078Z" fill="#181D27"/>
<path opacity="0.976" fill-rule="evenodd" clip-rule="evenodd" d="M15.6544 4.15747C16.6264 4.04603 17.5339 4.23033 18.3769 4.71037C18.6006 4.8504 18.7999 5.02102 18.975 5.22232C18.9956 4.93596 19.0025 4.64927 18.9956 4.36225C20.1644 4.36225 21.3331 4.36225 22.5019 4.36225C22.5019 7.73425 22.5019 11.1063 22.5019 14.4783C21.3331 14.4783 20.1644 14.4783 18.9956 14.4783C19.0025 14.1913 18.9956 13.9046 18.975 13.6182C18.3813 14.2576 17.6457 14.6194 16.7681 14.7035C14.7728 14.8087 13.2534 14.0237 12.21 12.3486C11.2267 10.4763 11.1992 8.59235 12.1275 6.69672C12.917 5.31865 14.0926 4.47226 15.6544 4.15747ZM16.5619 7.43392C18.0435 7.31548 18.8822 7.98441 19.0781 9.44075C19.0057 10.4334 18.497 11.0818 17.5519 11.3861C16.2547 11.5992 15.4091 11.0873 15.015 9.85031C14.8866 8.62958 15.4022 7.82411 16.5619 7.43392Z" fill="#181D27"/>
<path opacity="0.977" fill-rule="evenodd" clip-rule="evenodd" d="M38.7131 4.15746C40.6349 3.97186 42.2643 4.55887 43.6012 5.91856C44.9464 7.63435 45.2352 9.51831 44.4675 11.5704C43.5773 13.4221 42.0989 14.4665 40.0331 14.7035C37.6825 14.8779 35.8881 13.9837 34.65 12.0209C33.8661 10.4347 33.8111 8.82378 34.485 7.18818C35.3583 5.44064 36.7677 4.43039 38.7131 4.15746ZM39.2906 7.43391C40.5834 7.48195 41.2983 8.14404 41.4356 9.42026C41.361 10.4993 40.7974 11.1546 39.7444 11.3861C38.844 11.4818 38.1634 11.1474 37.7025 10.3827C37.2615 9.32868 37.4884 8.44814 38.3831 7.74108C38.6702 7.5773 38.9727 7.47491 39.2906 7.43391Z" fill="#181D27"/>
<path opacity="0.977" fill-rule="evenodd" clip-rule="evenodd" d="M50.0981 4.15707C52.0724 3.95372 53.729 4.56806 55.0688 6.00007C56.3046 7.63142 56.5934 9.41983 55.935 11.3653C55.0914 13.3453 53.5858 14.4579 51.4181 14.7031C49.7574 14.8451 48.3 14.381 47.0456 13.3107C45.6939 11.9461 45.1782 10.3147 45.4988 8.41645C46.0845 5.98516 47.6174 4.56536 50.0981 4.15707ZM50.6756 7.43352C51.8678 7.45015 52.576 8.03716 52.8 9.19461C52.8833 10.0327 52.574 10.6812 51.8719 11.14C50.9565 11.5881 50.1245 11.4721 49.3763 10.7919C48.7274 9.93677 48.7002 9.06306 49.2938 8.17072C49.6613 7.74601 50.1221 7.50028 50.6756 7.43352Z" fill="#181D27"/>
<path opacity="0.972" fill-rule="evenodd" clip-rule="evenodd" d="M-0.0206299 4.36194C1.27194 4.3551 2.56444 4.36194 3.85687 4.38242C4.62556 6.29799 5.38869 8.21611 6.14625 10.1367C6.93099 8.22254 7.70789 6.30447 8.47687 4.38242C9.7616 4.34183 11.0404 4.35547 12.3131 4.42337C10.3871 8.99955 8.46899 13.5798 6.55875 18.164C5.27616 18.2048 3.99052 18.2184 2.70187 18.2049C3.19418 16.9709 3.70293 15.7422 4.22812 14.5189C2.83502 11.1876 1.41877 7.8702 -0.0206299 4.56672C-0.0206299 4.49845 -0.0206299 4.43021 -0.0206299 4.36194Z" fill="#181D27"/>
<path opacity="0.968" fill-rule="evenodd" clip-rule="evenodd" d="M58.8019 9.89061C60.1437 9.84945 61.003 10.4638 61.38 11.7336C61.564 13.027 61.0624 13.9485 59.8744 14.4981C58.6666 14.863 57.6972 14.5421 56.9663 13.5357C56.3648 12.2477 56.6193 11.1624 57.7294 10.2797C58.0701 10.0875 58.4273 9.95782 58.8019 9.89061Z" fill="#181D27"/>
<path opacity="0.934" fill-rule="evenodd" clip-rule="evenodd" d="M29.4318 15.2971C30.428 15.269 30.9024 15.7468 30.855 16.7305C30.5957 17.4634 30.08 17.7569 29.3081 17.6111C28.5834 17.3118 28.329 16.7862 28.545 16.0343C28.7249 15.6434 29.0206 15.3976 29.4318 15.2971Z" fill="#181D27"/>
<path opacity="0.954" fill-rule="evenodd" clip-rule="evenodd" d="M26.5444 15.3383C27.0509 15.2919 27.5391 15.3602 28.0087 15.5431C28.0294 16.1299 28.0362 16.717 28.0294 17.3042C27.8148 17.2424 27.5947 17.2015 27.3694 17.1813C26.7728 17.2141 26.4978 17.5281 26.5444 18.1233C27.0118 18.1233 27.4794 18.1233 27.9469 18.1233C27.9469 18.6966 27.9469 19.27 27.9469 19.8434C27.4794 19.8434 27.0118 19.8434 26.5444 19.8434C26.5444 21.1813 26.5444 22.5192 26.5444 23.8571C25.8156 23.8571 25.0869 23.8571 24.3581 23.8571C24.3581 22.5192 24.3581 21.1813 24.3581 19.8434C24.1106 19.8434 23.8631 19.8434 23.6156 19.8434C23.6156 19.27 23.6156 18.6966 23.6156 18.1233C23.8631 18.1233 24.1106 18.1233 24.3581 18.1233C24.3372 17.4415 24.5091 16.8135 24.8737 16.2393C25.319 15.7283 25.8759 15.4279 26.5444 15.3383Z" fill="#181D27"/>
<path opacity="0.954" fill-rule="evenodd" clip-rule="evenodd" d="M34.8356 17.9589C36.2692 17.8604 37.0735 18.5157 37.2488 19.9247C37.2694 21.2352 37.2763 22.5458 37.2694 23.8565C36.5406 23.8565 35.8119 23.8565 35.0831 23.8565C35.09 22.7233 35.0831 21.5902 35.0625 20.4572C34.8582 19.8996 34.4938 19.7699 33.9694 20.0681C33.8552 20.2062 33.7796 20.3632 33.7425 20.5391C33.7219 21.6448 33.715 22.7506 33.7219 23.8565C32.9931 23.8565 32.2644 23.8565 31.5356 23.8565C31.5356 21.9452 31.5356 20.034 31.5356 18.1227C32.2644 18.1227 32.9931 18.1227 33.7219 18.1227C33.715 18.2871 33.7219 18.4509 33.7425 18.6141C34.0366 18.2739 34.401 18.0555 34.8356 17.9589Z" fill="#181D27"/>
<path opacity="0.962" fill-rule="evenodd" clip-rule="evenodd" d="M41.0232 23.9798C40.6656 23.9798 40.3082 23.9798 39.9507 23.9798C38.6933 23.6169 37.9714 22.7841 37.785 21.4815C37.6182 20.2436 38.0101 19.2265 38.9607 18.4303C39.8358 17.8675 40.7433 17.813 41.6832 18.2665C41.8259 18.3674 41.9566 18.4834 42.075 18.6146C42.0957 18.4514 42.1027 18.2875 42.0957 18.1232C42.8105 18.1232 43.5258 18.1232 44.2407 18.1232C44.2407 20.0344 44.2407 21.9457 44.2407 23.8569C43.5258 23.8569 42.8105 23.8569 42.0957 23.8569C42.1027 23.6925 42.0957 23.5287 42.075 23.3655C41.7751 23.661 41.4245 23.8657 41.0232 23.9798ZM40.7757 19.8842C41.5837 19.8266 42.0515 20.1952 42.1782 20.99C42.0895 21.6652 41.7046 22.0338 41.0232 22.0958C40.2573 22.0114 39.8792 21.5881 39.8888 20.8262C39.9981 20.3339 40.2937 20.02 40.7757 19.8842Z" fill="#181D27"/>
<path opacity="0.955" fill-rule="evenodd" clip-rule="evenodd" d="M48.3244 17.9592C49.616 17.8316 50.4067 18.3914 50.6963 19.6383C50.7536 21.0437 50.7743 22.4499 50.7582 23.8568C50.0293 23.8568 49.3008 23.8568 48.5719 23.8568C48.5789 22.7509 48.5719 21.6451 48.5513 20.5394C48.4148 19.9477 48.0641 19.777 47.4994 20.0274C47.3629 20.1412 47.2738 20.2845 47.2313 20.4574C47.2107 21.5905 47.2037 22.7236 47.2107 23.8568C46.4818 23.8568 45.7533 23.8568 45.0244 23.8568C45.0244 21.9455 45.0244 20.0343 45.0244 18.123C45.7533 18.123 46.4818 18.123 47.2107 18.123C47.2037 18.2874 47.2107 18.4512 47.2313 18.6144C47.5258 18.274 47.8901 18.0556 48.3244 17.9592Z" fill="#181D27"/>
<path opacity="0.954" fill-rule="evenodd" clip-rule="evenodd" d="M54.9243 23.9796C54.5118 23.9796 54.0993 23.9796 53.6868 23.9796C51.8594 23.4945 51.0551 22.3068 51.2737 20.4164C51.6664 18.8249 52.6906 18.0058 54.3468 17.9591C54.8216 17.9551 55.2754 18.0507 55.7081 18.2458C55.7629 18.9011 55.7629 19.5564 55.7081 20.2117C55.0848 19.8084 54.4524 19.7879 53.8106 20.1502C53.4076 20.5667 53.3321 21.0377 53.5837 21.5632C53.9723 22.024 54.4607 22.1811 55.0481 22.0342C55.2844 21.9647 55.5043 21.8623 55.7081 21.727C55.7629 22.3823 55.7629 23.0376 55.7081 23.6929C55.4511 23.8142 55.19 23.9097 54.9243 23.9796Z" fill="#181D27"/>
<path opacity="0.959" fill-rule="evenodd" clip-rule="evenodd" d="M59.8331 23.9798C59.3793 23.9798 58.9256 23.9798 58.4718 23.9798C56.9023 23.615 56.0913 22.6252 56.0381 21.0105C56.1243 19.3364 56.9905 18.3262 58.6368 17.9798C59.7559 17.8358 60.6977 18.1703 61.4625 18.9832C62.0024 19.7436 62.2153 20.59 62.1018 21.5224C60.7954 21.5224 59.4895 21.5224 58.1831 21.5224C58.2177 21.9116 58.424 22.1641 58.8018 22.2801C59.3286 22.4152 59.7617 22.2719 60.1012 21.8501C60.6923 22.0822 61.2838 22.3142 61.875 22.5463C61.9026 22.5873 61.9026 22.6282 61.875 22.6692C61.3861 23.3999 60.7055 23.8368 59.8331 23.9798ZM58.8431 19.5975C59.2655 19.5297 59.6161 19.6525 59.895 19.9661C59.9655 20.0648 59.9997 20.1739 59.9981 20.2937C59.3929 20.2937 58.7882 20.2937 58.1831 20.2937C58.2623 19.9284 58.4826 19.6963 58.8431 19.5975Z" fill="#181D27"/>
<path opacity="0.967" fill-rule="evenodd" clip-rule="evenodd" d="M28.6069 18.123C29.3219 18.123 30.0369 18.123 30.7519 18.123C30.7519 20.0343 30.7519 21.9456 30.7519 23.8568C30.0369 23.8568 29.3219 23.8568 28.6069 23.8568C28.6069 21.9456 28.6069 20.0343 28.6069 18.123Z" fill="#181D27"/>
</g>
<defs>
<clipPath id="clip0_283_2563">
<rect width="66" height="24" fill="white"/>
</clipPath>
</defs>
</svg>
